{
  "accessors": [
    {
      "bufferView": 2,
      "componentType": 5126,
      "count": 2500,
      "max": [
        10.394207954406738,
        10.770730972290039,
        0.8724742531776428
      ],
      "min": [
        -10.394207954406738,
        -10.770730972290039,
        -0.46858665347099304
      ],
      "type": "VEC3"
    },
    {
      "bufferView": 2,
      "byteOffset": 30000,
      "componentType": 5126,
      "count": 2500,
      "max": [
        0.8664742708206177,
        0.9818261861801147,
        0.9999911785125732
      ],
      "min": [
        -0.8664742708206177,
        -0.9818204641342163,
        -0.9443655014038086
      ],
      "type": "VEC3"
    },
    {
      "bufferView": 3,
      "componentType": 5126,
      "count": 2500,
      "max": [
        0.9999634027481079,
        0.9094659090042114,
        0.8548469543457031,
        1.0
      ],
      "min": [
        -0.29168274998664856,
        -0.47113704681396484,
        -0.8548617959022522,
        -1.0
      ],
      "type": "VEC4"
    },
    {
      "bufferView": 1,
      "componentType": 5126,
      "count": 2500,
      "max": [
        1.0,
        1.0
      ],
      "min": [
        0.0,
        0.0
      ],
      "type": "VEC2"
    },
    {
      "bufferView": 0,
      "componentType": 5125,
      "count": 14406,
      "type": "SCALAR"
    }
  ],
  "asset": {
    "extras": {
      "author": "ENOMIC (https://sketchfab.com/ENOMIC)",
      "license": "CC-BY-NC-4.0 (http://creativecommons.org/licenses/by-nc/4.0/)",
      "source": "https://sketchfab.com/3d-models/ocean-surface-648a41a46dfb4c208a41f2b79f85e63d",
      "title": "Ocean - Surface"
    },
    "generator": "Sketchfab-12.68.0",
    "version": "2.0"
  },
  "bufferViews": [
    {
      "buffer": 0,
      "byteLength": 57624,
      "name": "floatBufferViews",
      "target": 34963
    },
    {
      "buffer": 0,
      "byteLength": 20000,
      "byteOffset": 57624,
      "byteStride": 8,
      "name": "floatBufferViews",
      "target": 34962
    },
    {
      "buffer": 0,
      "byteLength": 60000,
      "byteOffset": 77624,
      "byteStride": 12,
      "name": "floatBufferViews",
      "target": 34962
    },
    {
      "buffer": 0,
      "byteLength": 40000,
      "byteOffset": 137624,
      "byteStride": 16,
      "name": "floatBufferViews",
      "target": 34962
    }
  ],
  "buffers": [
    {
      "byteLength": 177624,
      "uri": "scene.bin"
    }
  ],
  "extensionsUsed": [
    "KHR_materials_clearcoat",
    "KHR_materials_transmission"
  ],
  "images": [
    {
      "uri": "textures/Wave_baseColor.png"
    },
    {
      "uri": "textures/Wave_normal.png"
    },
    {
      "uri": "textures/Wave_clearcoat.png"
    },
    {
      "uri": "textures/Wave_clearcoat_normal.png"
    }
  ],
  "materials": [
    {
      "alphaMode": "BLEND",
      "doubleSided": true,
      "extensions": {
        "KHR_materials_clearcoat": {
          "clearcoatFactor": 1.0,
          "clearcoatNormalTexture": {
            "index": 3
          },
          "clearcoatRoughnessFactor": 0.08075229982549903,
          "clearcoatTexture": {
            "index": 2
          }
        },
        "KHR_materials_transmission": {
          "transmissionFactor": 0.5483571372112678
        }
      },
      "name": "Wave",
      "normalTexture": {
        "index": 1
      },
      "pbrMetallicRoughness": {
        "baseColorFactor": [
          0.0,
          0.4594144284531969,
          1.0,
          0.4516428627887322
        ],
        "baseColorTexture": {
          "index": 0
        },
        "metallicFactor": 0.0,
        "roughnessFactor": 0.26866917169800997
      }
    }
  ],
  "meshes": [
    {
      "name": "Water_Wave_0",
      "primitives": [
        {
          "attributes": {
            "NORMAL": 1,
            "POSITION": 0,
            "TANGENT": 2,
            "TEXCOORD_0": 3
          },
          "indices": 4,
          "material": 0,
          "mode": 4
        }
      ]
    }
  ],
  "nodes": [
    {
      "children": [
        1
      ],
      "matrix": [
        0.0018075034022331238,
        0.0,
        0.0,
        0.0,
        0.0,
        4.013463788495039e-19,
        -0.0018075034022331238,
        0.0,
        0.0,
        0.0018075034022331238,
        4.013463788495039e-19,
        0.0,
        0.0,
        0.0,
        0.0,
        1.0
      ],
      "name": "Sketchfab_model"
    },
    {
      "children": [
        2
      ],
      "matrix": [
        1.0,
        0.0,
        0.0,
        0.0,
        0.0,
        0.0,
        1.0,
        0.0,
        0.0,
        -1.0,
        0.0,
        0.0,
        0.0,
        0.0,
        0.0,
        1.0
      ],
      "name": "265f8d3aef824a7b81df70611d1f3723.fbx"
    },
    {
      "children": [
        3
      ],
      "name": "RootNode"
    },
    {
      "children": [
        4
      ],
      "matrix": [
        198.1682586669922,
        0.0,
        0.0,
        0.0,
        -0.0,
        -3.3367368791114543e-05,
        -204.8074493408176,
        0.0,
        0.0,
        101.62641143798695,
        -1.655704399563084e-05,
        0.0,
        -4.607200622558594,
        358.1809387207031,
        -36.70774841308594,
        1.0
      ],
      "name": "Water"
    },
    {
      "mesh": 0,
      "name": "Water_Wave_0"
    }
  ],
  "samplers": [
    {
      "magFilter": 9729,
      "minFilter": 9987,
      "wrapS": 10497,
      "wrapT": 10497
    }
  ],
  "scene": 0,
  "scenes": [
    {
      "name": "Sketchfab_Scene",
      "nodes": [
        0
      ]
    }
  ],
  "textures": [
    {
      "sampler": 0,
      "source": 0
    },
    {
      "sampler": 0,
      "source": 1
    },
    {
      "sampler": 0,
      "source": 2
    },
    {
      "sampler": 0,
      "source": 3
    }
  ]
}
